STARTFONT 2.1
FONT -gumix-asciicker-medium-r-normal--18-120-72-72-c-120-iso10646-1
SIZE 18 72 72
FONTBOUNDINGBOX 18 18 0 0
STARTPROPERTIES 23
ADD_STYLE_NAME ""
AVERAGE_WIDTH 120
CHARSET_ENCODING "1"
CHARSET_REGISTRY "ISO10646"
COPYRIGHT "gumix"
FAMILY_NAME "asciicker"
FOUNDRY "gumix"
MIN_SPACE 18
NOTICE "Licensed"
PIXEL_SIZE 18
POINT_SIZE 120
QUAD_WIDTH 18
RESOLUTION_X 72
RESOLUTION_Y 72
SETWIDTH_NAME "Normal"
SLANT "R"
SPACING "M"
WEIGHT 10
WEIGHT_NAME "Bold"
X_HEIGHT 10
DEFAULT_CHAR 33
FONT_DESCENT 0
FONT_ASCENT 18
ENDPROPERTIES
CHARS 256
STARTCHAR U+0000
ENCODING 0
SWIDTH 500 0
DWIDTH 18 0
BBX 18 18 0 0
BITMAP
000000
000000
000000
000000
000000
000000
000000
000000
000000
000000
000000
000000
000000
000000
000000
000000
000000
000000
ENDCHAR
STARTCHAR U+263A
ENCODING 9786
SWIDTH 500 0
DWIDTH 18 0
BBX 18 18 0 0
BITMAP
000000
07F800
0FFC00
180600
300300
300300
333300
333300
300300
300300
33F300
31E300
30C300
300300
180600
0FFC00
07F800
000000
ENDCHAR
STARTCHAR U+263B
ENCODING 9787
SWIDTH 500 0
DWIDTH 18 0
BBX 18 18 0 0
BITMAP
000000
07F800
0FFC00
1FFE00
3FFF00
3FFF00
3CCF00
3CCF00
3FFF00
3FFF00
3C0F00
3E1F00
3F3F00
3FFF00
1FFE00
0FFC00
07F800
000000
ENDCHAR
STARTCHAR U+2665
ENCODING 9829
SWIDTH 500 0
DWIDTH 18 0
BBX 18 18 0 0
BITMAP
000000
000000
0E1C00
1F3E00
3FFF00
3FFF00
3FFF00
3FFF00
3FFF00
1FFE00
1FFE00
0FFC00
07F800
03F000
01E000
00C000
000000
000000
ENDCHAR
STARTCHAR U+2666
ENCODING 9830
SWIDTH 500 0
DWIDTH 18 0
BBX 18 18 0 0
BITMAP
000000
00C000
01E000
03F000
07F800
0FFC00
1FFE00
3FFF00
7FFF80
7FFF80
3FFF00
1FFE00
0FFC00
07F800
03F000
01E000
00C000
000000
ENDCHAR
STARTCHAR U+2663
ENCODING 9827
SWIDTH 500 0
DWIDTH 18 0
BBX 18 18 0 0
BITMAP
000000
00E000
01F000
03F800
03F800
03F800
01F000
1CE700
3EEF80
7FFFC0
7FFFC0
7FFFC0
3EEF80
1CE700
00E000
01F000
07FC00
000000
ENDCHAR
STARTCHAR U+2660
ENCODING 9824
SWIDTH 500 0
DWIDTH 18 0
BBX 18 18 0 0
BITMAP
000000
00C000
01E000
03F000
07F800
0FFC00
1FFE00
3FFF00
3FFF00
7FFF80
7FFF80
7FFF80
3EDF00
1CCE00
00C000
01E000
07F800
000000
ENDCHAR
STARTCHAR U+2022
ENCODING 8226
SWIDTH 500 0
DWIDTH 18 0
BBX 18 18 0 0
BITMAP
000000
000000
000000
000000
01E000
03F000
07F800
0FFC00
0FFC00
0FFC00
0FFC00
07F800
03F000
01E000
000000
000000
000000
000000
ENDCHAR
STARTCHAR U+25D8
ENCODING 9688
SWIDTH 500 0
DWIDTH 18 0
BBX 18 18 0 0
BITMAP
FFFFC0
FFFFC0
FFFFC0
FFFFC0
FE1FC0
FC0FC0
F807C0
F003C0
F003C0
F003C0
F003C0
F807C0
FC0FC0
FE1FC0
FFFFC0
FFFFC0
FFFFC0
FFFFC0
ENDCHAR
STARTCHAR U+25CB
ENCODING 9675
SWIDTH 500 0
DWIDTH 18 0
BBX 18 18 0 0
BITMAP
000000
000000
07F800
0FFC00
1FFE00
1FFE00
1C0E00
180600
180600
180600
180600
1C0E00
1FFE00
1FFE00
0FFC00
07F800
000000
000000
ENDCHAR
STARTCHAR U+25D9
ENCODING 9689
SWIDTH 500 0
DWIDTH 18 0
BBX 18 18 0 0
BITMAP
FFFFC0
FFFFC0
F807C0
F003C0
E001C0
E001C0
E3F1C0
E7F9C0
E7F9C0
E7F9C0
E7F9C0
E3F1C0
E001C0
E001C0
F003C0
F807C0
FFFFC0
FFFFC0
ENDCHAR
STARTCHAR U+2642
ENCODING 9794
SWIDTH 500 0
DWIDTH 18 0
BBX 18 18 0 0
BITMAP
000000
01FE00
007E00
003E00
00F600
01C200
078000
0FF000
1FF800
3C3C00
3C3C00
3C3C00
3C3C00
3C3C00
1FF800
0FF000
000000
000000
ENDCHAR
STARTCHAR U+2640
ENCODING 9792
SWIDTH 500 0
DWIDTH 18 0
BBX 18 18 0 0
BITMAP
000000
07F800
0FFC00
1E1E00
1E1E00
1E1E00
1E1E00
1E1E00
0FFC00
07F800
01E000
1FFE00
1FFE00
01E000
01E000
01E000
000000
000000
ENDCHAR
STARTCHAR U+266A
ENCODING 9834
SWIDTH 500 0
DWIDTH 18 0
BBX 18 18 0 0
BITMAP
000000
01FC00
01FF00
01E380
01E000
01FC00
01FF00
01E380
01E000
01E000
1FE000
3FE000
7FE000
7FE000
3FC000
1F8000
000000
000000
ENDCHAR
STARTCHAR U+266B
ENCODING 9835
SWIDTH 500 0
DWIDTH 18 0
BBX 18 18 0 0
BITMAP
000000
07FF80
07FF80
070380
070380
07FF80
07FF80
070380
070380
070380
070F80
1F1F80
3F3F80
7F3F00
7E1E00
3C0000
000000
000000
ENDCHAR
STARTCHAR U+263C
ENCODING 9788
SWIDTH 500 0
DWIDTH 18 0
BBX 18 18 0 0
BITMAP
000000
000000
01E000
1DEE00
1FFE00
0FFC00
073800
3E1F00
3E1F00
3E1F00
073800
0FFC00
1FFE00
1DEE00
01E000
000000
000000
000000
ENDCHAR
STARTCHAR U+25BA
ENCODING 9658
SWIDTH 500 0
DWIDTH 18 0
BBX 18 18 0 0
BITMAP
000000
000000
300000
3C0000
3F0000
3FC000
3FF000
3FFC00
3FFF00
3FFF00
3FFC00
3FF000
3FC000
3F0000
3C0000
300000
000000
000000
ENDCHAR
STARTCHAR U+25C4
ENCODING 9668
SWIDTH 500 0
DWIDTH 18 0
BBX 18 18 0 0
BITMAP
000000
000000
000300
000F00
003F00
00FF00
03FF00
0FFF00
3FFF00
3FFF00
0FFF00
03FF00
00FF00
003F00
000F00
000300
000000
000000
ENDCHAR
STARTCHAR U+2195
ENCODING 8597
SWIDTH 500 0
DWIDTH 18 0
BBX 18 18 0 0
BITMAP
000000
00C000
01E000
03F000
07F800
0FFC00
01E000
01E000
01E000
01E000
01E000
01E000
0FFC00
07F800
03F000
01E000
00C000
000000
ENDCHAR
STARTCHAR U+203C
ENCODING 8252
SWIDTH 500 0
DWIDTH 18 0
BBX 18 18 0 0
BITMAP
000000
000000
1E1E00
1E1E00
1E1E00
1E1E00
1E1E00
1E1E00
1E1E00
000000
000000
1E1E00
1E1E00
1E1E00
1E1E00
000000
000000
000000
ENDCHAR
STARTCHAR U+00B6
ENCODING 182
SWIDTH 500 0
DWIDTH 18 0
BBX 18 18 0 0
BITMAP
000000
000000
1FFF80
3FFF80
79E780
79E780
79E780
79E780
79E780
3FE780
1FE780
01E780
01E780
01E780
01E780
000000
000000
000000
ENDCHAR
STARTCHAR U+00A7
ENCODING 167
SWIDTH 500 0
DWIDTH 18 0
BBX 18 18 0 0
BITMAP
000000
000000
0FFE00
1FFF00
1E0380
1E0180
0FF080
07FC00
1E1E00
1C0E00
1E1E00
0FFC00
43F800
601C00
781E00
3FFE00
0FFC00
000000
ENDCHAR
STARTCHAR U+25AC
ENCODING 9644
SWIDTH 500 0
DWIDTH 18 0
BBX 18 18 0 0
BITMAP
000000
000000
000000
000000
000000
000000
000000
000000
000000
000000
1FFE00
1FFE00
1FFE00
1FFE00
1FFE00
1FFE00
000000
000000
ENDCHAR
STARTCHAR U+21A8
ENCODING 8616
SWIDTH 500 0
DWIDTH 18 0
BBX 18 18 0 0
BITMAP
000000
000000
00C000
01E000
03F000
07F800
0FFC00
01E000
01E000
01E000
01E000
0FFC00
07F800
03F000
01E000
1FFE00
1FFE00
000000
ENDCHAR
STARTCHAR U+2191
ENCODING 8593
SWIDTH 500 0
DWIDTH 18 0
BBX 18 18 0 0
BITMAP
000000
00C000
01E000
03F000
07F800
0FFC00
1FFE00
3FFF00
01E000
01E000
01E000
01E000
01E000
01E000
01E000
01E000
000000
000000
ENDCHAR
STARTCHAR U+2193
ENCODING 8595
SWIDTH 500 0
DWIDTH 18 0
BBX 18 18 0 0
BITMAP
000000
000000
01E000
01E000
01E000
01E000
01E000
01E000
01E000
3FFF00
1FFE00
0FFC00
07F800
03F000
01E000
00C000
000000
000000
ENDCHAR
STARTCHAR U+2192
ENCODING 8594
SWIDTH 500 0
DWIDTH 18 0
BBX 18 18 0 0
BITMAP
000000
000000
002000
003000
003800
003C00
003E00
3FFF00
3FFF80
3FFF80
3FFF00
003E00
003C00
003800
003000
002000
000000
000000
ENDCHAR
STARTCHAR U+2190
ENCODING 8592
SWIDTH 500 0
DWIDTH 18 0
BBX 18 18 0 0
BITMAP
000000
000000
010000
030000
070000
0F0000
1F0000
3FFF00
7FFF00
7FFF00
3FFF00
1F0000
0F0000
070000
030000
010000
000000
000000
ENDCHAR
STARTCHAR U+221F
ENCODING 8735
SWIDTH 500 0
DWIDTH 18 0
BBX 18 18 0 0
BITMAP
000000
000000
000000
000000
000000
1E0000
1E0000
1E0000
1E0000
1E0000
1E0000
1FFE00
1FFE00
000000
000000
000000
000000
000000
ENDCHAR
STARTCHAR U+2194
ENCODING 8596
SWIDTH 500 0
DWIDTH 18 0
BBX 18 18 0 0
BITMAP
000000
000000
000000
000000
021000
061800
0E1C00
1E1E00
3FFF00
7FFF80
3FFF00
1E1E00
0E1C00
061800
021000
000000
000000
000000
ENDCHAR
STARTCHAR U+25B2
ENCODING 9650
SWIDTH 500 0
DWIDTH 18 0
BBX 18 18 0 0
BITMAP
000000
000000
00C000
00C000
01E000
01E000
03F000
03F000
07F800
07F800
0FFC00
0FFC00
1FFE00
1FFE00
3FFF00
3FFF00
000000
000000
ENDCHAR
STARTCHAR U+25BC
ENCODING 9660
SWIDTH 500 0
DWIDTH 18 0
BBX 18 18 0 0
BITMAP
000000
000000
3FFF00
3FFF00
1FFE00
1FFE00
0FFC00
0FFC00
07F800
07F800
03F000
03F000
01E000
01E000
00C000
00C000
000000
000000
ENDCHAR
STARTCHAR U+0020
ENCODING 32
SWIDTH 500 0
DWIDTH 18 0
BBX 18 18 0 0
BITMAP
000000
000000
000000
000000
000000
000000
000000
000000
000000
000000
000000
000000
000000
000000
000000
000000
000000
000000
ENDCHAR
STARTCHAR U+0021
ENCODING 33
SWIDTH 500 0
DWIDTH 18 0
BBX 18 18 0 0
BITMAP
000000
01E000
03F000
03F000
03F000
03F000
03F000
01E000
01E000
000000
000000
01E000
01E000
01E000
01E000
000000
000000
000000
ENDCHAR
STARTCHAR U+0022
ENCODING 34
SWIDTH 500 0
DWIDTH 18 0
BBX 18 18 0 0
BITMAP
000000
1E1E00
1E1E00
1E1E00
1E1E00
0E1C00
061800
000000
000000
000000
000000
000000
000000
000000
000000
000000
000000
000000
ENDCHAR
STARTCHAR U+0023
ENCODING 35
SWIDTH 500 0
DWIDTH 18 0
BBX 18 18 0 0
BITMAP
000000
1E3C00
1E3C00
1E3C00
1E3C00
7FFF00
7FFF00
1E3C00
1E3C00
1E3C00
7FFF00
7FFF00
1E3C00
1E3C00
1E3C00
1E3C00
000000
000000
ENDCHAR
STARTCHAR U+0024
ENCODING 36
SWIDTH 500 0
DWIDTH 18 0
BBX 18 18 0 0
BITMAP
01E000
01E000
01E000
07FE00
0FFE00
1E0000
1E0000
0FF800
07FC00
001E00
001E00
1FFC00
1FF800
01E000
01E000
01E000
000000
000000
ENDCHAR
STARTCHAR U+0025
ENCODING 37
SWIDTH 500 0
DWIDTH 18 0
BBX 18 18 0 0
BITMAP
000000
000000
3C0700
3C0F00
3C1E00
3C3C00
007800
00F000
01E000
03C000
078000
0F0F00
1E0F00
3C0F00
380F00
000000
000000
000000
ENDCHAR
STARTCHAR U+0026
ENCODING 38
SWIDTH 500 0
DWIDTH 18 0
BBX 18 18 0 0
BITMAP
000000
000000
0FC000
1FE000
3CF000
3CF000
3CF000
0FC300
0FC700
3CEE00
3C7E00
3C3C00
3C3C00
1FFE00
0FEF00
000000
000000
000000
ENDCHAR
STARTCHAR U+0027
ENCODING 39
SWIDTH 500 0
DWIDTH 18 0
BBX 18 18 0 0
BITMAP
000000
000000
01E000
01E000
01E000
03C000
078000
000000
000000
000000
000000
000000
000000
000000
000000
000000
000000
000000
ENDCHAR
STARTCHAR U+0028
ENCODING 40
SWIDTH 500 0
DWIDTH 18 0
BBX 18 18 0 0
BITMAP
000000
000000
007800
00F000
01E000
03C000
078000
078000
078000
078000
078000
03C000
01E000
00F000
007800
000000
000000
000000
ENDCHAR
STARTCHAR U+0029
ENCODING 41
SWIDTH 500 0
DWIDTH 18 0
BBX 18 18 0 0
BITMAP
000000
000000
078000
03C000
01E000
00F000
007800
007800
007800
007800
007800
00F000
01E000
03C000
078000
000000
000000
000000
ENDCHAR
STARTCHAR U+002A
ENCODING 42
SWIDTH 500 0
DWIDTH 18 0
BBX 18 18 0 0
BITMAP
000000
00C000
00C000
18C600
0CCC00
07F800
03F000
3FFF00
3FFF00
03F000
07F800
0CCC00
18C600
00C000
00C000
000000
000000
000000
ENDCHAR
STARTCHAR U+002B
ENCODING 43
SWIDTH 500 0
DWIDTH 18 0
BBX 18 18 0 0
BITMAP
000000
000000
000000
01E000
01E000
01E000
01E000
1FFE00
1FFE00
1FFE00
01E000
01E000
01E000
01E000
000000
000000
000000
000000
ENDCHAR
STARTCHAR U+002C
ENCODING 44
SWIDTH 500 0
DWIDTH 18 0
BBX 18 18 0 0
BITMAP
000000
000000
000000
000000
000000
000000
000000
000000
000000
000000
000000
01E000
01E000
01E000
03C000
078000
000000
000000
ENDCHAR
STARTCHAR U+002D
ENCODING 45
SWIDTH 500 0
DWIDTH 18 0
BBX 18 18 0 0
BITMAP
000000
000000
000000
000000
000000
000000
000000
000000
1FFE00
1FFE00
000000
000000
000000
000000
000000
000000
000000
000000
ENDCHAR
STARTCHAR U+002E
ENCODING 46
SWIDTH 500 0
DWIDTH 18 0
BBX 18 18 0 0
BITMAP
000000
000000
000000
000000
000000
000000
000000
000000
000000
000000
000000
01E000
01E000
01E000
01E000
000000
000000
000000
ENDCHAR
STARTCHAR U+002F
ENCODING 47
SWIDTH 500 0
DWIDTH 18 0
BBX 18 18 0 0
BITMAP
000000
000380
000780
000F80
001F00
003E00
007C00
00F800
01F000
03E000
07C000
0F8000
1F0000
3E0000
7C0000
780000
700000
000000
ENDCHAR
STARTCHAR U+0030
ENCODING 48
SWIDTH 500 0
DWIDTH 18 0
BBX 18 18 0 0
BITMAP
000000
000000
07F800
0FFC00
1E1E00
1E1E00
1E3E00
1E7E00
1EDE00
1F9E00
1F1E00
1E1E00
1E1E00
0FFC00
07F800
000000
000000
000000
ENDCHAR
STARTCHAR U+0031
ENCODING 49
SWIDTH 500 0
DWIDTH 18 0
BBX 18 18 0 0
BITMAP
000000
000000
01E000
03E000
1FE000
1FE000
01E000
01E000
01E000
01E000
01E000
01E000
01E000
1FFE00
1FFE00
000000
000000
000000
ENDCHAR
STARTCHAR U+0032
ENCODING 50
SWIDTH 500 0
DWIDTH 18 0
BBX 18 18 0 0
BITMAP
000000
000000
07F800
0FFC00
1E1E00
1E1E00
001E00
003C00
007800
01E000
03C000
078000
0F0E00
1FFE00
1FFE00
000000
000000
000000
ENDCHAR
STARTCHAR U+0033
ENCODING 51
SWIDTH 500 0
DWIDTH 18 0
BBX 18 18 0 0
BITMAP
000000
000000
07F800
0FFC00
1E1E00
1C1E00
001E00
001E00
01F800
001E00
001E00
1C1E00
1E1E00
0FFC00
07F800
000000
000000
000000
ENDCHAR
STARTCHAR U+0034
ENCODING 52
SWIDTH 500 0
DWIDTH 18 0
BBX 18 18 0 0
BITMAP
000000
000000
007E00
00FE00
01FE00
03FE00
079E00
0F1E00
1E1E00
1FFF80
1FFF80
001E00
001E00
001E00
001E00
000000
000000
000000
ENDCHAR
STARTCHAR U+0035
ENCODING 53
SWIDTH 500 0
DWIDTH 18 0
BBX 18 18 0 0
BITMAP
000000
000000
1FFE00
1FFE00
1E0000
1E0000
1FF800
1FFC00
001E00
000E00
000E00
1C0E00
1E1E00
0FFC00
07F800
000000
000000
000000
ENDCHAR
STARTCHAR U+0036
ENCODING 54
SWIDTH 500 0
DWIDTH 18 0
BBX 18 18 0 0
BITMAP
000000
000000
07F800
0FFC00
1E1E00
1E0E00
1E0000
1E0000
1FF800
1E1E00
1E1E00
1E1E00
1E1E00
0FFC00
07F800
000000
000000
000000
ENDCHAR
STARTCHAR U+0037
ENCODING 55
SWIDTH 500 0
DWIDTH 18 0
BBX 18 18 0 0
BITMAP
000000
000000
1FFE00
1FFE00
1E1E00
1E1E00
003C00
007800
00F000
01E000
01E000
01E000
01E000
01E000
01E000
000000
000000
000000
ENDCHAR
STARTCHAR U+0038
ENCODING 56
SWIDTH 500 0
DWIDTH 18 0
BBX 18 18 0 0
BITMAP
000000
000000
07F800
0FFC00
1E1E00
1E1E00
1E1E00
1E1E00
07F800
1E1E00
1E1E00
1E1E00
1E1E00
0FFC00
07F800
000000
000000
000000
ENDCHAR
STARTCHAR U+0039
ENCODING 57
SWIDTH 500 0
DWIDTH 18 0
BBX 18 18 0 0
BITMAP
000000
000000
07F800
0FFC00
1E1E00
1E1E00
1E1E00
1E1E00
0FFE00
001E00
001E00
1C1E00
1E1E00
0FFC00
07F800
000000
000000
000000
ENDCHAR
STARTCHAR U+003A
ENCODING 58
SWIDTH 500 0
DWIDTH 18 0
BBX 18 18 0 0
BITMAP
000000
000000
000000
000000
01E000
01E000
01E000
01E000
000000
000000
01E000
01E000
01E000
01E000
000000
000000
000000
000000
ENDCHAR
STARTCHAR U+003B
ENCODING 59
SWIDTH 500 0
DWIDTH 18 0
BBX 18 18 0 0
BITMAP
000000
000000
000000
000000
01E000
01E000
01E000
01E000
000000
000000
01E000
01E000
01E000
01E000
03C000
078000
000000
000000
ENDCHAR
STARTCHAR U+003C
ENCODING 60
SWIDTH 500 0
DWIDTH 18 0
BBX 18 18 0 0
BITMAP
000000
003800
007800
00F000
01E000
03C000
078000
0F0000
1E0000
0F0000
078000
03C000
01E000
00F000
007800
003800
000000
000000
ENDCHAR
STARTCHAR U+003D
ENCODING 61
SWIDTH 500 0
DWIDTH 18 0
BBX 18 18 0 0
BITMAP
000000
000000
000000
000000
000000
000000
1FFE00
1FFE00
000000
000000
1FFE00
1FFE00
000000
000000
000000
000000
000000
000000
ENDCHAR
STARTCHAR U+003E
ENCODING 62
SWIDTH 500 0
DWIDTH 18 0
BBX 18 18 0 0
BITMAP
000000
070000
078000
03C000
01E000
00F000
007800
003C00
001E00
003C00
007800
00F000
01E000
03C000
078000
070000
000000
000000
ENDCHAR
STARTCHAR U+003F
ENCODING 63
SWIDTH 500 0
DWIDTH 18 0
BBX 18 18 0 0
BITMAP
000000
000000
07F800
0FFC00
1E1E00
1C1E00
001E00
001C00
003800
00F000
01E000
000000
000000
01E000
01E000
000000
000000
000000
ENDCHAR
STARTCHAR U+0040
ENCODING 64
SWIDTH 500 0
DWIDTH 18 0
BBX 18 18 0 0
BITMAP
000000
000000
0FF800
1FFC00
3C0E00
3C0E00
3C0E00
3CFE00
3CFE00
3C0000
3C0000
3C0000
3C0000
1FFE00
0FFE00
000000
000000
000000
ENDCHAR
STARTCHAR U+0041
ENCODING 65
SWIDTH 500 0
DWIDTH 18 0
BBX 18 18 0 0
BITMAP
000000
000000
01E000
03F000
07F800
0FFC00
1E1E00
1E1E00
1E1E00
1FFE00
1FFE00
1E1E00
1E1E00
1E1E00
1E1E00
000000
000000
000000
ENDCHAR
STARTCHAR U+0042
ENCODING 66
SWIDTH 500 0
DWIDTH 18 0
BBX 18 18 0 0
BITMAP
000000
000000
7FF800
7FF800
1E1E00
1E1E00
1E1E00
1E1E00
1FF800
1E1E00
1E1E00
1E1E00
1E1E00
7FF800
7FF800
000000
000000
000000
ENDCHAR
STARTCHAR U+0043
ENCODING 67
SWIDTH 500 0
DWIDTH 18 0
BBX 18 18 0 0
BITMAP
000000
000000
0FF800
1FFC00
3E1E00
3C0E00
780000
780000
780000
780000
780000
3C0E00
3E1E00
1FFC00
0FF800
000000
000000
000000
ENDCHAR
STARTCHAR U+0044
ENCODING 68
SWIDTH 500 0
DWIDTH 18 0
BBX 18 18 0 0
BITMAP
000000
000000
3FF800
3FFC00
0F1E00
0F0E00
0F0700
0F0700
0F0700
0F0700
0F0700
0F0E00
0F1E00
3FFC00
3FF800
000000
000000
000000
ENDCHAR
STARTCHAR U+0045
ENCODING 69
SWIDTH 500 0
DWIDTH 18 0
BBX 18 18 0 0
BITMAP
000000
000000
7FFE00
7FFE00
1E0E00
1E0600
1E0000
1E1800
1FF800
1E1800
1E0000
1E0600
1E0E00
7FFE00
7FFE00
000000
000000
000000
ENDCHAR
STARTCHAR U+0046
ENCODING 70
SWIDTH 500 0
DWIDTH 18 0
BBX 18 18 0 0
BITMAP
000000
000000
7FFE00
7FFE00
1E0E00
1E0600
1E0000
1E1800
1FF800
1E1800
1E0000
1E0000
1E0000
7F8000
7F8000
000000
000000
000000
ENDCHAR
STARTCHAR U+0047
ENCODING 71
SWIDTH 500 0
DWIDTH 18 0
BBX 18 18 0 0
BITMAP
000000
000000
0FF800
1FFC00
3E1E00
3C1E00
781E00
780000
780000
787E00
787E00
3C1E00
3E1E00
1FFE00
0FFE00
000000
000000
000000
ENDCHAR
STARTCHAR U+0048
ENCODING 72
SWIDTH 500 0
DWIDTH 18 0
BBX 18 18 0 0
BITMAP
000000
000000
1E1E00
1E1E00
1E1E00
1E1E00
1E1E00
1E1E00
1FFE00
1E1E00
1E1E00
1E1E00
1E1E00
1E1E00
1E1E00
000000
000000
000000
ENDCHAR
STARTCHAR U+0049
ENCODING 73
SWIDTH 500 0
DWIDTH 18 0
BBX 18 18 0 0
BITMAP
000000
000000
07F800
07F800
01E000
01E000
01E000
01E000
01E000
01E000
01E000
01E000
01E000
07F800
07F800
000000
000000
000000
ENDCHAR
STARTCHAR U+004A
ENCODING 74
SWIDTH 500 0
DWIDTH 18 0
BBX 18 18 0 0
BITMAP
000000
000000
01FE00
01FE00
007800
007800
007800
007800
007800
787800
787800
787800
787800
3FF000
1FE000
000000
000000
000000
ENDCHAR
STARTCHAR U+004B
ENCODING 75
SWIDTH 500 0
DWIDTH 18 0
BBX 18 18 0 0
BITMAP
000000
000000
7E0780
7E0780
1E0F00
1E1E00
1E3C00
1E7800
1FF000
1FF800
1E3C00
1E1E00
1E0F00
7E0780
7E0780
000000
000000
000000
ENDCHAR
STARTCHAR U+004C
ENCODING 76
SWIDTH 500 0
DWIDTH 18 0
BBX 18 18 0 0
BITMAP
000000
000000
3FC000
3FC000
0F0000
0F0000
0F0000
0F0000
0F0000
0F0000
0F0000
0F0300
0F0700
3FFF00
3FFF00
000000
000000
000000
ENDCHAR
STARTCHAR U+004D
ENCODING 77
SWIDTH 500 0
DWIDTH 18 0
BBX 18 18 0 0
BITMAP
000000
000000
3C0F00
3E1F00
3F3F00
3FFF00
3FFF00
3DEF00
3CCF00
3C0F00
3C0F00
3C0F00
3C0F00
3C0F00
3C0F00
000000
000000
000000
ENDCHAR
STARTCHAR U+004E
ENCODING 78
SWIDTH 500 0
DWIDTH 18 0
BBX 18 18 0 0
BITMAP
000000
000000
3C0F00
3E0F00
3F0F00
3F8F00
3FCF00
3FEF00
3DFF00
3CFF00
3C7F00
3C3F00
3C1F00
3C0F00
3C0F00
000000
000000
000000
ENDCHAR
STARTCHAR U+004F
ENCODING 79
SWIDTH 500 0
DWIDTH 18 0
BBX 18 18 0 0
BITMAP
000000
000000
0FFC00
1FFE00
3C0F00
3C0F00
3C0F00
3C0F00
3C0F00
3C0F00
3C0F00
3C0F00
3C0F00
1FFE00
0FFC00
000000
000000
000000
ENDCHAR
STARTCHAR U+0050
ENCODING 80
SWIDTH 500 0
DWIDTH 18 0
BBX 18 18 0 0
BITMAP
000000
000000
7FF800
7FFC00
1E1E00
1E1E00
1E1E00
1E1E00
1FFC00
1E0000
1E0000
1E0000
1E0000
7F8000
7F8000
000000
000000
000000
ENDCHAR
STARTCHAR U+0051
ENCODING 81
SWIDTH 500 0
DWIDTH 18 0
BBX 18 18 0 0
BITMAP
000000
000000
1FF800
3FFC00
781E00
781E00
781E00
781E00
781E00
783E00
787E00
3FF800
1FF800
01FE00
00FE00
000000
000000
000000
ENDCHAR
STARTCHAR U+0052
ENCODING 82
SWIDTH 500 0
DWIDTH 18 0
BBX 18 18 0 0
BITMAP
000000
000000
7FF800
7FFC00
1E1E00
1E1E00
1E1E00
1E1E00
1FFC00
1FF000
1E7800
1E3C00
1E1E00
7E1E00
7E1E00
000000
000000
000000
ENDCHAR
STARTCHAR U+0053
ENCODING 83
SWIDTH 500 0
DWIDTH 18 0
BBX 18 18 0 0
BITMAP
000000
000000
07F800
0FFC00
1E1E00
1E1E00
1E0000
1F0000
0FF000
003C00
001E00
1E1E00
1E1E00
0FFC00
07F800
000000
000000
000000
ENDCHAR
STARTCHAR U+0054
ENCODING 84
SWIDTH 500 0
DWIDTH 18 0
BBX 18 18 0 0
BITMAP
000000
000000
1FFE00
1FFE00
19E600
11E200
01E000
01E000
01E000
01E000
01E000
01E000
01E000
07F800
07F800
000000
000000
000000
ENDCHAR
STARTCHAR U+0055
ENCODING 85
SWIDTH 500 0
DWIDTH 18 0
BBX 18 18 0 0
BITMAP
000000
000000
1E1E00
1E1E00
1E1E00
1E1E00
1E1E00
1E1E00
1E1E00
1E1E00
1E1E00
1E1E00
1E1E00
0FFC00
07F800
000000
000000
000000
ENDCHAR
STARTCHAR U+0056
ENCODING 86
SWIDTH 500 0
DWIDTH 18 0
BBX 18 18 0 0
BITMAP
000000
000000
1E1E00
1E1E00
1E1E00
1E1E00
1E1E00
1E1E00
1E1E00
1E1E00
1E1E00
0F3C00
07F800
03F000
01E000
000000
000000
000000
ENDCHAR
STARTCHAR U+0057
ENCODING 87
SWIDTH 500 0
DWIDTH 18 0
BBX 18 18 0 0
BITMAP
000000
000000
3C0F00
3C0F00
3C0F00
3C0F00
3C0F00
3C0F00
3CCF00
3CCF00
3CCF00
1FFE00
1FFE00
0F3C00
0F3C00
000000
000000
000000
ENDCHAR
STARTCHAR U+0058
ENCODING 88
SWIDTH 500 0
DWIDTH 18 0
BBX 18 18 0 0
BITMAP
000000
000000
1E1E00
1E1E00
1E1E00
0F3C00
07F800
03F000
01E000
03F000
07F800
0F3C00
1E1E00
1E1E00
1E1E00
000000
000000
000000
ENDCHAR
STARTCHAR U+0059
ENCODING 89
SWIDTH 500 0
DWIDTH 18 0
BBX 18 18 0 0
BITMAP
000000
000000
1E1E00
1E1E00
1E1E00
1E1E00
1E1E00
1E1E00
0F3C00
03F000
01E000
01E000
01E000
07F800
07F800
000000
000000
000000
ENDCHAR
STARTCHAR U+005A
ENCODING 90
SWIDTH 500 0
DWIDTH 18 0
BBX 18 18 0 0
BITMAP
000000
000000
1FFE00
1FFE00
1C1E00
181E00
103C00
007800
00F000
01E000
03C000
078200
0F8600
1FFE00
1FFE00
000000
000000
000000
ENDCHAR
STARTCHAR U+005B
ENCODING 91
SWIDTH 500 0
DWIDTH 18 0
BBX 18 18 0 0
BITMAP
000000
000000
07F800
07F800
078000
078000
078000
078000
078000
078000
078000
078000
078000
07F800
07F800
000000
000000
000000
ENDCHAR
STARTCHAR U+005C
ENCODING 92
SWIDTH 500 0
DWIDTH 18 0
BBX 18 18 0 0
BITMAP
000000
700000
780000
7C0000
3E0000
1F0000
0F8000
07C000
03E000
01F000
00F800
007C00
003E00
001F00
000F80
000780
000380
000000
ENDCHAR
STARTCHAR U+005D
ENCODING 93
SWIDTH 500 0
DWIDTH 18 0
BBX 18 18 0 0
BITMAP
000000
000000
07F800
07F800
007800
007800
007800
007800
007800
007800
007800
007800
007800
07F800
07F800
000000
000000
000000
ENDCHAR
STARTCHAR U+005E
ENCODING 94
SWIDTH 500 0
DWIDTH 18 0
BBX 18 18 0 0
BITMAP
000000
000000
00C000
01E000
03F000
07F800
0F3C00
1E1E00
3C0F00
000000
000000
000000
000000
000000
000000
000000
000000
000000
ENDCHAR
STARTCHAR U+005F
ENCODING 95
SWIDTH 500 0
DWIDTH 18 0
BBX 18 18 0 0
BITMAP
000000
000000
000000
000000
000000
000000
000000
000000
000000
000000
000000
000000
000000
000000
FFFFC0
FFFFC0
000000
000000
ENDCHAR
STARTCHAR U+0060
ENCODING 96
SWIDTH 500 0
DWIDTH 18 0
BBX 18 18 0 0
BITMAP
000000
03C000
03C000
03C000
03C000
01E000
00F000
000000
000000
000000
000000
000000
000000
000000
000000
000000
000000
000000
ENDCHAR
STARTCHAR U+0061
ENCODING 97
SWIDTH 500 0
DWIDTH 18 0
BBX 18 18 0 0
BITMAP
000000
000000
000000
000000
000000
000000
1FE000
1FF000
007800
1FF800
3FF800
787800
787800
3FFE00
1FCE00
000000
000000
000000
ENDCHAR
STARTCHAR U+0062
ENCODING 98
SWIDTH 500 0
DWIDTH 18 0
BBX 18 18 0 0
BITMAP
000000
000000
7E0000
7E0000
1E0000
1E0000
1FF800
1FFC00
1E1E00
1E1E00
1E1E00
1E1E00
1E1E00
7FFC00
7FF800
000000
000000
000000
ENDCHAR
STARTCHAR U+0063
ENCODING 99
SWIDTH 500 0
DWIDTH 18 0
BBX 18 18 0 0
BITMAP
000000
000000
000000
000000
000000
000000
07F800
0FFC00
1E1E00
1C0000
1C0000
1C0E00
1E1E00
0FFC00
07F800
000000
000000
000000
ENDCHAR
STARTCHAR U+0064
ENCODING 100
SWIDTH 500 0
DWIDTH 18 0
BBX 18 18 0 0
BITMAP
000000
000000
007E00
007E00
001E00
001E00
07FE00
0FFE00
1E1E00
1E1E00
1E1E00
1E1E00
1E1E00
0FFE00
07FE00
000000
000000
000000
ENDCHAR
STARTCHAR U+0065
ENCODING 101
SWIDTH 500 0
DWIDTH 18 0
BBX 18 18 0 0
BITMAP
000000
000000
000000
000000
000000
000000
07F800
0FFC00
1E1E00
1FFE00
1FFE00
1E0000
1E0E00
0FFC00
07F800
000000
000000
000000
ENDCHAR
STARTCHAR U+0066
ENCODING 102
SWIDTH 500 0
DWIDTH 18 0
BBX 18 18 0 0
BITMAP
000000
000000
01F800
03FC00
079E00
079E00
078000
078000
1FF800
1FF800
078000
078000
078000
1FE000
1FE000
000000
000000
000000
ENDCHAR
STARTCHAR U+0067
ENCODING 103
SWIDTH 500 0
DWIDTH 18 0
BBX 18 18 0 0
BITMAP
000000
000000
000000
000000
000000
000000
0FCF00
1FFF00
3C3C00
3C3C00
3C3C00
1FFC00
0FFC00
003C00
3C3C00
1FF800
0FF000
000000
ENDCHAR
STARTCHAR U+0068
ENCODING 104
SWIDTH 500 0
DWIDTH 18 0
BBX 18 18 0 0
BITMAP
000000
000000
1F0000
1F0000
0F0000
0F0000
0F3C00
0F7E00
0FFF00
0F8F00
0F0F00
0F0F00
0F0F00
1F0F00
1F0F00
000000
000000
000000
ENDCHAR
STARTCHAR U+0069
ENCODING 105
SWIDTH 500 0
DWIDTH 18 0
BBX 18 18 0 0
BITMAP
000000
000000
01E000
01E000
000000
000000
1FE000
1FE000
01E000
01E000
01E000
01E000
01E000
1FFE00
1FFE00
000000
000000
000000
ENDCHAR
STARTCHAR U+006A
ENCODING 106
SWIDTH 500 0
DWIDTH 18 0
BBX 18 18 0 0
BITMAP
000000
000000
001E00
001E00
000000
000000
01FE00
01FE00
001E00
001E00
001E00
001E00
001E00
1E1E00
1E1E00
0FFC00
07F800
000000
ENDCHAR
STARTCHAR U+006B
ENCODING 107
SWIDTH 500 0
DWIDTH 18 0
BBX 18 18 0 0
BITMAP
000000
000000
3F0000
3F0000
0F0000
0F0000
0F0700
0F0F00
0F1E00
0FFC00
0FF800
0F7C00
0F3E00
3F1F00
3F0F00
000000
000000
000000
ENDCHAR
STARTCHAR U+006C
ENCODING 108
SWIDTH 500 0
DWIDTH 18 0
BBX 18 18 0 0
BITMAP
000000
000000
1FE000
1FE000
01E000
01E000
01E000
01E000
01E000
01E000
01E000
01E000
01E000
1FFE00
1FFE00
000000
000000
000000
ENDCHAR
STARTCHAR U+006D
ENCODING 109
SWIDTH 500 0
DWIDTH 18 0
BBX 18 18 0 0
BITMAP
000000
000000
000000
000000
000000
000000
3FFC00
3FFE00
3CCF00
3CCF00
3CCF00
3CCF00
3CCF00
3C0F00
3C0F00
000000
000000
000000
ENDCHAR
STARTCHAR U+006E
ENCODING 110
SWIDTH 500 0
DWIDTH 18 0
BBX 18 18 0 0
BITMAP
000000
000000
000000
000000
000000
000000
1FF800
1FFC00
1E1E00
1E1E00
1E1E00
1E1E00
1E1E00
1E1E00
1E1E00
000000
000000
000000
ENDCHAR
STARTCHAR U+006F
ENCODING 111
SWIDTH 500 0
DWIDTH 18 0
BBX 18 18 0 0
BITMAP
000000
000000
000000
000000
000000
000000
07F800
0FFC00
1E1E00
1E1E00
1E1E00
1E1E00
1E1E00
0FFC00
07F800
000000
000000
000000
ENDCHAR
STARTCHAR U+0070
ENCODING 112
SWIDTH 500 0
DWIDTH 18 0
BBX 18 18 0 0
BITMAP
000000
000000
000000
000000
000000
000000
79F800
7BFC00
1E1E00
1E1E00
1E1E00
1E1E00
1FFC00
1FF800
1E0000
1E0000
7F8000
7F8000
ENDCHAR
STARTCHAR U+0071
ENCODING 113
SWIDTH 500 0
DWIDTH 18 0
BBX 18 18 0 0
BITMAP
000000
000000
000000
000000
000000
000000
1F9E00
3FDE00
787800
787800
787800
787800
3FF800
1FF800
007800
007800
01FE00
01FE00
ENDCHAR
STARTCHAR U+0072
ENCODING 114
SWIDTH 500 0
DWIDTH 18 0
BBX 18 18 0 0
BITMAP
000000
000000
000000
000000
000000
000000
7E7C00
7EFE00
1FDE00
1F0000
1E0000
1E0000
1E0000
7F8000
7F8000
000000
000000
000000
ENDCHAR
STARTCHAR U+0073
ENCODING 115
SWIDTH 500 0
DWIDTH 18 0
BBX 18 18 0 0
BITMAP
000000
000000
000000
000000
000000
000000
07FC00
0FFE00
1E0600
0F8000
03FC00
003E00
181E00
1FFC00
0FF800
000000
000000
000000
ENDCHAR
STARTCHAR U+0074
ENCODING 116
SWIDTH 500 0
DWIDTH 18 0
BBX 18 18 0 0
BITMAP
000000
000000
018000
038000
078000
0F8000
1FFE00
1FFE00
078000
078000
078000
078E00
079E00
03FC00
01F800
000000
000000
000000
ENDCHAR
STARTCHAR U+0075
ENCODING 117
SWIDTH 500 0
DWIDTH 18 0
BBX 18 18 0 0
BITMAP
000000
000000
000000
000000
000000
000000
1E1E00
1E1E00
1E1E00
1E1E00
1E1E00
1E1E00
1E1E00
0FFF80
07E780
000000
000000
000000
ENDCHAR
STARTCHAR U+0076
ENCODING 118
SWIDTH 500 0
DWIDTH 18 0
BBX 18 18 0 0
BITMAP
000000
000000
000000
000000
000000
000000
1E1E00
1E1E00
1E1E00
1E1E00
1E1E00
0F3C00
07F800
03F000
01E000
000000
000000
000000
ENDCHAR
STARTCHAR U+0077
ENCODING 119
SWIDTH 500 0
DWIDTH 18 0
BBX 18 18 0 0
BITMAP
000000
000000
000000
000000
000000
000000
3C0F00
3C0F00
3CCF00
3CCF00
3CCF00
1FFE00
1FFE00
0F3C00
0F3C00
000000
000000
000000
ENDCHAR
STARTCHAR U+0078
ENCODING 120
SWIDTH 500 0
DWIDTH 18 0
BBX 18 18 0 0
BITMAP
000000
000000
000000
000000
000000
000000
1C0E00
1C0E00
1E1E00
07F800
07F800
0F3C00
1E1E00
1C0E00
1C0E00
000000
000000
000000
ENDCHAR
STARTCHAR U+0079
ENCODING 121
SWIDTH 500 0
DWIDTH 18 0
BBX 18 18 0 0
BITMAP
000000
000000
000000
000000
000000
000000
1E1E00
1E1E00
1E1E00
1E1E00
1E1E00
0FFC00
07FC00
007800
007800
1FF000
1FE000
000000
ENDCHAR
STARTCHAR U+007A
ENCODING 122
SWIDTH 500 0
DWIDTH 18 0
BBX 18 18 0 0
BITMAP
000000
000000
000000
000000
000000
000000
1FFE00
1FFE00
187800
10F000
01E000
03C200
078600
0FFE00
1FFE00
000000
000000
000000
ENDCHAR
STARTCHAR U+007B
ENCODING 123
SWIDTH 500 0
DWIDTH 18 0
BBX 18 18 0 0
BITMAP
000000
000000
00FC00
01FC00
03C000
03C000
03C000
078000
0F0000
078000
03C000
03C000
03C000
01FC00
00FC00
000000
000000
000000
ENDCHAR
STARTCHAR U+007C
ENCODING 124
SWIDTH 500 0
DWIDTH 18 0
BBX 18 18 0 0
BITMAP
000000
000000
01E000
01E000
01E000
01E000
01E000
01E000
000000
01E000
01E000
01E000
01E000
01E000
01E000
000000
000000
000000
ENDCHAR
STARTCHAR U+007D
ENCODING 125
SWIDTH 500 0
DWIDTH 18 0
BBX 18 18 0 0
BITMAP
000000
000000
0FC000
0FE000
00F000
00F000
00F000
007800
003C00
007800
00F000
00F000
00F000
0FE000
0FC000
000000
000000
000000
ENDCHAR
STARTCHAR U+007E
ENCODING 126
SWIDTH 500 0
DWIDTH 18 0
BBX 18 18 0 0
BITMAP
000000
000000
0F8000
1FC300
3FE700
38FF00
307E00
003800
000000
000000
000000
000000
000000
000000
000000
000000
000000
000000
ENDCHAR
STARTCHAR U+2302
ENCODING 8962
SWIDTH 500 0
DWIDTH 18 0
BBX 18 18 0 0
BITMAP
000000
000000
000000
000000
00C000
01E000
03F000
07F800
0F3C00
1E1E00
3C0F00
3C0F00
3C0F00
3FFF00
3FFF00
000000
000000
000000
ENDCHAR
STARTCHAR U+00C7
ENCODING 199
SWIDTH 500 0
DWIDTH 18 0
BBX 18 18 0 0
BITMAP
000000
000000
07FC00
0FFE00
1F0F00
1E0700
3C0000
3C0000
3C0000
3C0000
3C0000
1E0700
1F0F00
0FFE00
07FC00
00F000
0FF000
0FF000
ENDCHAR
STARTCHAR U+00FC
ENCODING 252
SWIDTH 500 0
DWIDTH 18 0
BBX 18 18 0 0
BITMAP
1E1E00
1E1E00
1E1E00
1E1E00
000000
000000
1E1E00
1E1E00
1E1E00
1E1E00
1E1E00
1E1E00
1E1E00
0FFF80
07E780
000000
000000
000000
ENDCHAR
STARTCHAR U+00E9
ENCODING 233
SWIDTH 500 0
DWIDTH 18 0
BBX 18 18 0 0
BITMAP
000000
007800
00F000
01E000
000000
000000
07F800
0FFC00
1E1E00
1FFE00
1FFE00
1E0000
1E0E00
0FFC00
07F800
000000
000000
000000
ENDCHAR
STARTCHAR U+00E2
ENCODING 226
SWIDTH 500 0
DWIDTH 18 0
BBX 18 18 0 0
BITMAP
000000
07E000
0FF000
1E7800
000000
000000
0FF000
0FF800
003C00
0FFC00
1FFC00
3C3C00
3C3C00
1FFF00
0FCF00
000000
000000
000000
ENDCHAR
STARTCHAR U+00E4
ENCODING 228
SWIDTH 500 0
DWIDTH 18 0
BBX 18 18 0 0
BITMAP
3C3C00
3C3C00
3C3C00
3C3C00
000000
000000
0FF000
0FF800
003C00
0FFC00
1FFC00
3C3C00
3C3C00
1FFF00
0FCF00
000000
000000
000000
ENDCHAR
STARTCHAR U+00E0
ENCODING 224
SWIDTH 500 0
DWIDTH 18 0
BBX 18 18 0 0
BITMAP
000000
0F0000
078000
03C000
000000
000000
0FF000
0FF800
003C00
0FFC00
1FFC00
3C3C00
3C3C00
1FFF00
0FCF00
000000
000000
000000
ENDCHAR
STARTCHAR U+00E5
ENCODING 229
SWIDTH 500 0
DWIDTH 18 0
BBX 18 18 0 0
BITMAP
03F000
073800
0E1C00
0E1C00
073800
03F000
0FF000
0FF800
003C00
0FFC00
1FFC00
3C3C00
3C3C00
1FFF00
0FCF00
000000
000000
000000
ENDCHAR
STARTCHAR U+00E7
ENCODING 231
SWIDTH 500 0
DWIDTH 18 0
BBX 18 18 0 0
BITMAP
000000
000000
000000
000000
000000
000000
07F800
0FFC00
1E1E00
1E0000
1E0000
1E0E00
1E1E00
0FFC00
07F800
01E000
01E000
1FE000
ENDCHAR
STARTCHAR U+00EA
ENCODING 234
SWIDTH 500 0
DWIDTH 18 0
BBX 18 18 0 0
BITMAP
000000
03F000
07F800
0F3C00
000000
000000
07F800
0FFC00
1E1E00
1FFE00
1FFE00
1E0000
1E0E00
0FFC00
07F800
000000
000000
000000
ENDCHAR
STARTCHAR U+00EB
ENCODING 235
SWIDTH 500 0
DWIDTH 18 0
BBX 18 18 0 0
BITMAP
1E1E00
1E1E00
1E1E00
1E1E00
000000
000000
07F800
0FFC00
1E1E00
1FFE00
1FFE00
1E0000
1E0E00
0FFC00
07F800
000000
000000
000000
ENDCHAR
STARTCHAR U+00E8
ENCODING 232
SWIDTH 500 0
DWIDTH 18 0
BBX 18 18 0 0
BITMAP
078000
03C000
01E000
000000
000000
000000
07F800
0FFC00
1E1E00
1FFE00
1FFE00
1E0000
1E0E00
0FFC00
07F800
000000
000000
000000
ENDCHAR
STARTCHAR U+00EF
ENCODING 239
SWIDTH 500 0
DWIDTH 18 0
BBX 18 18 0 0
BITMAP
3C3C00
3C3C00
3C3C00
3C3C00
000000
000000
1FE000
1FE000
01E000
01E000
01E000
01E000
01E000
1FFE00
1FFE00
000000
000000
000000
ENDCHAR
STARTCHAR U+00EE
ENCODING 238
SWIDTH 500 0
DWIDTH 18 0
BBX 18 18 0 0
BITMAP
000000
03F000
07F800
0F3C00
000000
000000
1FE000
1FE000
01E000
01E000
01E000
01E000
01E000
1FFE00
1FFE00
000000
000000
000000
ENDCHAR
STARTCHAR U+00EC
ENCODING 236
SWIDTH 500 0
DWIDTH 18 0
BBX 18 18 0 0
BITMAP
000000
078000
03C000
01E000
000000
000000
1FE000
1FE000
01E000
01E000
01E000
01E000
01E000
1FFE00
1FFE00
000000
000000
000000
ENDCHAR
STARTCHAR U+00C4
ENCODING 196
SWIDTH 500 0
DWIDTH 18 0
BBX 18 18 0 0
BITMAP
1E1E00
1E1E00
000000
000000
01E000
03F000
07F800
0FFC00
1E1E00
1E1E00
1E1E00
1FFE00
1E1E00
1E1E00
1E1E00
000000
000000
000000
ENDCHAR
STARTCHAR U+00C5
ENCODING 197
SWIDTH 500 0
DWIDTH 18 0
BBX 18 18 0 0
BITMAP
03F000
073800
0E1C00
0E1C00
073800
03F000
07F800
0FFC00
1E1E00
1E1E00
1E1E00
1FFE00
1E1E00
1E1E00
1E1E00
000000
000000
000000
ENDCHAR
STARTCHAR U+00C9
ENCODING 201
SWIDTH 500 0
DWIDTH 18 0
BBX 18 18 0 0
BITMAP
000000
00F000
03C000
000000
0FFC00
0FFC00
0E0C00
0E0400
0E1000
0FF000
0E1000
0E0400
0E0C00
0FFC00
0FFC00
000000
000000
000000
ENDCHAR
STARTCHAR U+00E6
ENCODING 230
SWIDTH 500 0
DWIDTH 18 0
BBX 18 18 0 0
BITMAP
000000
000000
000000
000000
000000
000000
1FFE00
1FFF00
01E380
1FFF80
3FFF80
79E000
79E380
7F7F80
3E3F00
000000
000000
000000
ENDCHAR
STARTCHAR U+00C6
ENCODING 198
SWIDTH 500 0
DWIDTH 18 0
BBX 18 18 0 0
BITMAP
000000
000000
07FF80
07FF80
1FF800
1FF800
787800
787800
7FFF80
787800
787800
787800
787800
787F80
787F80
000000
000000
000000
ENDCHAR
STARTCHAR U+00F4
ENCODING 244
SWIDTH 500 0
DWIDTH 18 0
BBX 18 18 0 0
BITMAP
000000
03F000
07F800
0F3C00
000000
000000
07F800
0FFC00
1E1E00
1E1E00
1E1E00
1E1E00
1E1E00
0FFC00
07F800
000000
000000
000000
ENDCHAR
STARTCHAR U+00F6
ENCODING 246
SWIDTH 500 0
DWIDTH 18 0
BBX 18 18 0 0
BITMAP
000000
1E1E00
1E1E00
1E1E00
000000
000000
07F800
0FFC00
1E1E00
1E1E00
1E1E00
1E1E00
1E1E00
0FFC00
07F800
000000
000000
000000
ENDCHAR
STARTCHAR U+00F2
ENCODING 242
SWIDTH 500 0
DWIDTH 18 0
BBX 18 18 0 0
BITMAP
000000
000000
078000
03C000
01E000
000000
07F800
0FFC00
1E1E00
1E1E00
1E1E00
1E1E00
1E1E00
0FFC00
07F800
000000
000000
000000
ENDCHAR
STARTCHAR U+00FB
ENCODING 251
SWIDTH 500 0
DWIDTH 18 0
BBX 18 18 0 0
BITMAP
000000
03F000
07F800
0F3C00
000000
000000
1E1E00
1E1E00
1E1E00
1E1E00
1E1E00
1E1E00
1E1E00
0FFC00
07F800
000000
000000
000000
ENDCHAR
STARTCHAR U+00F9
ENCODING 249
SWIDTH 500 0
DWIDTH 18 0
BBX 18 18 0 0
BITMAP
000000
000000
078000
03C000
01E000
000000
1E1E00
1E1E00
1E1E00
1E1E00
1E1E00
1E1E00
1E1E00
0FFC00
07F800
000000
000000
000000
ENDCHAR
STARTCHAR U+00FF
ENCODING 255
SWIDTH 500 0
DWIDTH 18 0
BBX 18 18 0 0
BITMAP
000000
1E1E00
1E1E00
1E1E00
000000
000000
1E1E00
1E1E00
1E1E00
1E1E00
1E1E00
0FFE00
07FE00
001E00
001E00
07FC00
07F800
000000
ENDCHAR
STARTCHAR U+00D6
ENCODING 214
SWIDTH 500 0
DWIDTH 18 0
BBX 18 18 0 0
BITMAP
000000
1E1E00
1E1E00
000000
07F800
0FFC00
1E1E00
1E1E00
1E1E00
1E1E00
1E1E00
1E1E00
1E1E00
0FFC00
07F800
000000
000000
000000
ENDCHAR
STARTCHAR U+00DC
ENCODING 220
SWIDTH 500 0
DWIDTH 18 0
BBX 18 18 0 0
BITMAP
000000
1E1E00
1E1E00
000000
1E1E00
1E1E00
1E1E00
1E1E00
1E1E00
1E1E00
1E1E00
1E1E00
1E1E00
0FFC00
07F800
000000
000000
000000
ENDCHAR
STARTCHAR U+00A2
ENCODING 162
SWIDTH 500 0
DWIDTH 18 0
BBX 18 18 0 0
BITMAP
000000
01E000
01E000
01E000
07F800
0FFC00
1E1E00
1E0E00
1E0000
1E0E00
1E1E00
0FFC00
07F800
01E000
01E000
01E000
01E000
000000
ENDCHAR
STARTCHAR U+00A3
ENCODING 163
SWIDTH 500 0
DWIDTH 18 0
BBX 18 18 0 0
BITMAP
000000
000000
03FC00
07FE00
0F0F00
0F0700
0F0000
0F0000
3FFC00
0F0000
0F0000
0F0000
0E0000
0E0100
1C0300
3FFF00
3FFF00
000000
ENDCHAR
STARTCHAR U+00A5
ENCODING 165
SWIDTH 500 0
DWIDTH 18 0
BBX 18 18 0 0
BITMAP
000000
000000
1E1E00
1E1E00
1E1E00
1E1E00
1E1E00
1E1E00
0FFC00
07F800
03F000
1FFE00
01E000
1FFE00
01E000
01E000
01E000
000000
ENDCHAR
STARTCHAR U+20A7
ENCODING 8359
SWIDTH 500 0
DWIDTH 18 0
BBX 18 18 0 0
BITMAP
000000
000000
7F8000
7FC000
606000
606000
606000
7FC000
7F8000
606000
606000
61FE00
607800
607880
607980
603F00
601E00
000000
ENDCHAR
STARTCHAR U+0192
ENCODING 402
SWIDTH 500 0
DWIDTH 18 0
BBX 18 18 0 0
BITMAP
000000
000000
007E00
00FF00
01E780
01E780
01E000
01E000
1FFE00
1FFE00
01E000
01E000
01E000
71E000
71E000
3FC000
1F8000
000000
ENDCHAR
STARTCHAR U+00E1
ENCODING 225
SWIDTH 500 0
DWIDTH 18 0
BBX 18 18 0 0
BITMAP
000000
00F000
01E000
03C000
000000
000000
0FF000
0FF800
003C00
0FFC00
1FFC00
3C3C00
3C3C00
1FFF00
0FCF00
000000
000000
000000
ENDCHAR
STARTCHAR U+00ED
ENCODING 237
SWIDTH 500 0
DWIDTH 18 0
BBX 18 18 0 0
BITMAP
000000
01E000
03C000
078000
000000
000000
1FE000
1FE000
01E000
01E000
01E000
01E000
01E000
1FFE00
1FFE00
000000
000000
000000
ENDCHAR
STARTCHAR U+00F3
ENCODING 243
SWIDTH 500 0
DWIDTH 18 0
BBX 18 18 0 0
BITMAP
000000
007800
00F000
01E000
000000
000000
07F800
0FFC00
1E1E00
1E1E00
1E1E00
1E1E00
1E1E00
0FFC00
07F800
000000
000000
000000
ENDCHAR
STARTCHAR U+00FA
ENCODING 250
SWIDTH 500 0
DWIDTH 18 0
BBX 18 18 0 0
BITMAP
000000
007800
00F000
01E000
000000
000000
1E1E00
1E1E00
1E1E00
1E1E00
1E1E00
1E1E00
1E1E00
0FFF80
07F380
000000
000000
000000
ENDCHAR
STARTCHAR U+00F1
ENCODING 241
SWIDTH 500 0
DWIDTH 18 0
BBX 18 18 0 0
BITMAP
000000
07E380
0F7700
1E3E00
000000
000000
1FF800
1FFC00
1E1E00
1E1E00
1E1E00
1E1E00
1E1E00
1E1E00
1E1E00
000000
000000
000000
ENDCHAR
STARTCHAR U+00D1
ENCODING 209
SWIDTH 500 0
DWIDTH 18 0
BBX 18 18 0 0
BITMAP
000000
0FC700
1EEE00
3C7C00
000000
3E0F00
3F0F00
3F8F00
3DCF00
3CEF00
3C7F00
3C3F00
3C1F00
3C0F00
3C0F00
000000
000000
000000
ENDCHAR
STARTCHAR U+00AA
ENCODING 170
SWIDTH 500 0
DWIDTH 18 0
BBX 18 18 0 0
BITMAP
000000
000000
07E000
07F000
003800
07F800
0FF800
1E3800
0FFE00
000000
3FFF00
3FFF00
000000
000000
000000
000000
000000
000000
ENDCHAR
STARTCHAR U+00BA
ENCODING 186
SWIDTH 500 0
DWIDTH 18 0
BBX 18 18 0 0
BITMAP
000000
000000
07F000
0FF800
1C1C00
1C1C00
1C1C00
0FF800
07F000
000000
3FFF00
3FFF00
000000
000000
000000
000000
000000
000000
ENDCHAR
STARTCHAR U+00BF
ENCODING 191
SWIDTH 500 0
DWIDTH 18 0
BBX 18 18 0 0
BITMAP
000000
000000
01E000
01E000
000000
000000
01E000
03C000
078000
0E0000
1E0000
1E0E00
1E1E00
0FFC00
07F800
000000
000000
000000
ENDCHAR
STARTCHAR U+2310
ENCODING 8976
SWIDTH 500 0
DWIDTH 18 0
BBX 18 18 0 0
BITMAP
000000
000000
000000
000000
000000
000000
1FFE00
1FFE00
1E0000
1E0000
1E0000
1E0000
1E0000
000000
000000
000000
000000
000000
ENDCHAR
STARTCHAR U+00AC
ENCODING 172
SWIDTH 500 0
DWIDTH 18 0
BBX 18 18 0 0
BITMAP
000000
000000
000000
000000
000000
000000
1FFE00
1FFE00
001E00
001E00
001E00
001E00
001E00
000000
000000
000000
000000
000000
ENDCHAR
STARTCHAR U+00BD
ENCODING 189
SWIDTH 500 0
DWIDTH 18 0
BBX 18 18 0 0
BITMAP
000000
180E00
381E00
783C00
187800
18F000
19E000
1BC000
078000
0F3F00
1E7F80
3C6380
780700
700E00
601C00
003F80
007F80
000000
ENDCHAR
STARTCHAR U+00BC
ENCODING 188
SWIDTH 500 0
DWIDTH 18 0
BBX 18 18 0 0
BITMAP
000000
0C0700
1C0F00
3C1E00
0C3C00
0C7800
0CF000
0DE000
03CF00
079F00
0F3F00
1E7700
3CE700
39C700
31FF00
000700
000700
000000
ENDCHAR
STARTCHAR U+00A1
ENCODING 161
SWIDTH 500 0
DWIDTH 18 0
BBX 18 18 0 0
BITMAP
000000
000000
01E000
01E000
01E000
01E000
000000
000000
01E000
01E000
03F000
03F000
03F000
03F000
03F000
01E000
000000
000000
ENDCHAR
STARTCHAR U+00AB
ENCODING 171
SWIDTH 500 0
DWIDTH 18 0
BBX 18 18 0 0
BITMAP
000000
000000
000000
000000
078780
0F0F00
1E1E00
3C3C00
787800
787800
787800
3C3C00
1E1E00
0F0F00
078780
000000
000000
000000
ENDCHAR
STARTCHAR U+00BB
ENCODING 187
SWIDTH 500 0
DWIDTH 18 0
BBX 18 18 0 0
BITMAP
000000
000000
000000
000000
787800
3C3C00
1E1E00
0F0F00
078780
078780
078780
0F0F00
1E1E00
3C3C00
787800
000000
000000
000000
ENDCHAR
STARTCHAR U+2591
ENCODING 9617
SWIDTH 500 0
DWIDTH 18 0
BBX 18 18 0 0
BITMAP
222200
888880
222200
888880
222200
888880
222200
888880
222200
888880
222200
888880
222200
888880
222200
888880
222200
888880
ENDCHAR
STARTCHAR U+2592
ENCODING 9618
SWIDTH 500 0
DWIDTH 18 0
BBX 18 18 0 0
BITMAP
AAAA80
555540
AAAA80
555540
AAAA80
555540
AAAA80
555540
AAAA80
555540
AAAA80
555540
AAAA80
555540
AAAA80
555540
AAAA80
555540
ENDCHAR
STARTCHAR U+2593
ENCODING 9619
SWIDTH 500 0
DWIDTH 18 0
BBX 18 18 0 0
BITMAP
DDDDC0
777740
DDDDC0
777740
DDDDC0
777740
DDDDC0
777740
DDDDC0
777740
DDDDC0
777740
DDDDC0
777740
DDDDC0
777740
DDDDC0
777740
ENDCHAR
STARTCHAR U+2502
ENCODING 9474
SWIDTH 500 0
DWIDTH 18 0
BBX 18 18 0 0
BITMAP
01E000
01E000
01E000
01E000
01E000
01E000
01E000
01E000
01E000
01E000
01E000
01E000
01E000
01E000
01E000
01E000
01E000
01E000
ENDCHAR
STARTCHAR U+2524
ENCODING 9508
SWIDTH 500 0
DWIDTH 18 0
BBX 18 18 0 0
BITMAP
01E000
01E000
01E000
01E000
01E000
01E000
01E000
FFE000
FFE000
FFE000
FFE000
01E000
01E000
01E000
01E000
01E000
01E000
01E000
ENDCHAR
STARTCHAR U+2561
ENCODING 9569
SWIDTH 500 0
DWIDTH 18 0
BBX 18 18 0 0
BITMAP
01E000
01E000
01E000
FFE000
FFE000
FFE000
FFE000
01E000
01E000
01E000
01E000
FFE000
FFE000
FFE000
FFE000
01E000
01E000
01E000
ENDCHAR
STARTCHAR U+2562
ENCODING 9570
SWIDTH 500 0
DWIDTH 18 0
BBX 18 18 0 0
BITMAP
1E1E00
1E1E00
1E1E00
1E1E00
1E1E00
1E1E00
1E1E00
FE1E00
FE1E00
FE1E00
FE1E00
1E1E00
1E1E00
1E1E00
1E1E00
1E1E00
1E1E00
1E1E00
ENDCHAR
STARTCHAR U+2556
ENCODING 9558
SWIDTH 500 0
DWIDTH 18 0
BBX 18 18 0 0
BITMAP
000000
000000
000000
000000
000000
000000
000000
FFFE00
FFFE00
FFFE00
FFFE00
1E1E00
1E1E00
1E1E00
1E1E00
1E1E00
1E1E00
1E1E00
ENDCHAR
STARTCHAR U+2555
ENCODING 9557
SWIDTH 500 0
DWIDTH 18 0
BBX 18 18 0 0
BITMAP
000000
000000
000000
FFE000
FFE000
FFE000
FFE000
01E000
01E000
01E000
01E000
FFE000
FFE000
FFE000
FFE000
01E000
01E000
01E000
ENDCHAR
STARTCHAR U+2563
ENCODING 9571
SWIDTH 500 0
DWIDTH 18 0
BBX 18 18 0 0
BITMAP
1E1E00
1E1E00
1E1E00
FE1E00
FE1E00
FE1E00
FE1E00
001E00
001E00
001E00
001E00
FE1E00
FE1E00
FE1E00
FE1E00
1E1E00
1E1E00
1E1E00
ENDCHAR
STARTCHAR U+2551
ENCODING 9553
SWIDTH 500 0
DWIDTH 18 0
BBX 18 18 0 0
BITMAP
1E1E00
1E1E00
1E1E00
1E1E00
1E1E00
1E1E00
1E1E00
1E1E00
1E1E00
1E1E00
1E1E00
1E1E00
1E1E00
1E1E00
1E1E00
1E1E00
1E1E00
1E1E00
ENDCHAR
STARTCHAR U+2557
ENCODING 9559
SWIDTH 500 0
DWIDTH 18 0
BBX 18 18 0 0
BITMAP
000000
000000
000000
FFFE00
FFFE00
FFFE00
FFFE00
001E00
001E00
001E00
001E00
FE1E00
FE1E00
FE1E00
FE1E00
1E1E00
1E1E00
1E1E00
ENDCHAR
STARTCHAR U+255D
ENCODING 9565
SWIDTH 500 0
DWIDTH 18 0
BBX 18 18 0 0
BITMAP
1E1E00
1E1E00
1E1E00
FE1E00
FE1E00
FE1E00
FE1E00
001E00
001E00
001E00
001E00
FFFE00
FFFE00
FFFE00
FFFE00
000000
000000
000000
ENDCHAR
STARTCHAR U+255C
ENCODING 9564
SWIDTH 500 0
DWIDTH 18 0
BBX 18 18 0 0
BITMAP
1E1E00
1E1E00
1E1E00
1E1E00
1E1E00
1E1E00
1E1E00
FFFE00
FFFE00
FFFE00
FFFE00
000000
000000
000000
000000
000000
000000
000000
ENDCHAR
STARTCHAR U+255B
ENCODING 9563
SWIDTH 500 0
DWIDTH 18 0
BBX 18 18 0 0
BITMAP
01E000
01E000
01E000
FFE000
FFE000
FFE000
FFE000
01E000
01E000
01E000
01E000
FFE000
FFE000
FFE000
FFE000
000000
000000
000000
ENDCHAR
STARTCHAR U+2510
ENCODING 9488
SWIDTH 500 0
DWIDTH 18 0
BBX 18 18 0 0
BITMAP
000000
000000
000000
000000
000000
000000
000000
FFE000
FFE000
FFE000
FFE000
01E000
01E000
01E000
01E000
01E000
01E000
01E000
ENDCHAR
STARTCHAR U+2514
ENCODING 9492
SWIDTH 500 0
DWIDTH 18 0
BBX 18 18 0 0
BITMAP
01E000
01E000
01E000
01E000
01E000
01E000
01E000
01FFC0
01FFC0
01FFC0
01FFC0
000000
000000
000000
000000
000000
000000
000000
ENDCHAR
STARTCHAR U+2534
ENCODING 9524
SWIDTH 500 0
DWIDTH 18 0
BBX 18 18 0 0
BITMAP
01E000
01E000
01E000
01E000
01E000
01E000
01E000
FFFFC0
FFFFC0
FFFFC0
FFFFC0
000000
000000
000000
000000
000000
000000
000000
ENDCHAR
STARTCHAR U+252C
ENCODING 9516
SWIDTH 500 0
DWIDTH 18 0
BBX 18 18 0 0
BITMAP
000000
000000
000000
000000
000000
000000
000000
FFFFC0
FFFFC0
FFFFC0
FFFFC0
01E000
01E000
01E000
01E000
01E000
01E000
01E000
ENDCHAR
STARTCHAR U+251C
ENCODING 9500
SWIDTH 500 0
DWIDTH 18 0
BBX 18 18 0 0
BITMAP
01E000
01E000
01E000
01E000
01E000
01E000
01E000
01FFC0
01FFC0
01FFC0
01FFC0
01E000
01E000
01E000
01E000
01E000
01E000
01E000
ENDCHAR
STARTCHAR U+2500
ENCODING 9472
SWIDTH 500 0
DWIDTH 18 0
BBX 18 18 0 0
BITMAP
000000
000000
000000
000000
000000
000000
000000
FFFFC0
FFFFC0
FFFFC0
FFFFC0
000000
000000
000000
000000
000000
000000
000000
ENDCHAR
STARTCHAR U+253C
ENCODING 9532
SWIDTH 500 0
DWIDTH 18 0
BBX 18 18 0 0
BITMAP
01E000
01E000
01E000
01E000
01E000
01E000
01E000
FFFFC0
FFFFC0
FFFFC0
FFFFC0
01E000
01E000
01E000
01E000
01E000
01E000
01E000
ENDCHAR
STARTCHAR U+255E
ENCODING 9566
SWIDTH 500 0
DWIDTH 18 0
BBX 18 18 0 0
BITMAP
01E000
01E000
01E000
01FFC0
01FFC0
01FFC0
01FFC0
01E000
01E000
01E000
01E000
01FFC0
01FFC0
01FFC0
01FFC0
01E000
01E000
01E000
ENDCHAR
STARTCHAR U+255F
ENCODING 9567
SWIDTH 500 0
DWIDTH 18 0
BBX 18 18 0 0
BITMAP
1E1E00
1E1E00
1E1E00
1E1E00
1E1E00
1E1E00
1E1E00
1E1FC0
1E1FC0
1E1FC0
1E1FC0
1E1E00
1E1E00
1E1E00
1E1E00
1E1E00
1E1E00
1E1E00
ENDCHAR
STARTCHAR U+255A
ENCODING 9562
SWIDTH 500 0
DWIDTH 18 0
BBX 18 18 0 0
BITMAP
1E1E00
1E1E00
1E1E00
1E1FC0
1E1FC0
1E1FC0
1E1FC0
1E0000
1E0000
1E0000
1E0000
1FFFC0
1FFFC0
1FFFC0
1FFFC0
000000
000000
000000
ENDCHAR
STARTCHAR U+2554
ENCODING 9556
SWIDTH 500 0
DWIDTH 18 0
BBX 18 18 0 0
BITMAP
000000
000000
000000
1FFFC0
1FFFC0
1FFFC0
1FFFC0
1E0000
1E0000
1E0000
1E0000
1E1FC0
1E1FC0
1E1FC0
1E1FC0
1E1E00
1E1E00
1E1E00
ENDCHAR
STARTCHAR U+2569
ENCODING 9577
SWIDTH 500 0
DWIDTH 18 0
BBX 18 18 0 0
BITMAP
1E1E00
1E1E00
1E1E00
FE1FC0
FE1FC0
FE1FC0
FE1FC0
000000
000000
000000
000000
FFFFC0
FFFFC0
FFFFC0
FFFFC0
000000
000000
000000
ENDCHAR
STARTCHAR U+2566
ENCODING 9574
SWIDTH 500 0
DWIDTH 18 0
BBX 18 18 0 0
BITMAP
000000
000000
000000
FFFFC0
FFFFC0
FFFFC0
FFFFC0
000000
000000
000000
000000
FE1FC0
FE1FC0
FE1FC0
FE1FC0
1E1E00
1E1E00
1E1E00
ENDCHAR
STARTCHAR U+2560
ENCODING 9568
SWIDTH 500 0
DWIDTH 18 0
BBX 18 18 0 0
BITMAP
1E1E00
1E1E00
1E1E00
1E1FC0
1E1FC0
1E1FC0
1E1FC0
1E0000
1E0000
1E0000
1E0000
1E1FC0
1E1FC0
1E1FC0
1E1FC0
1E1E00
1E1E00
1E1E00
ENDCHAR
STARTCHAR U+2550
ENCODING 9552
SWIDTH 500 0
DWIDTH 18 0
BBX 18 18 0 0
BITMAP
000000
000000
000000
FFFFC0
FFFFC0
FFFFC0
FFFFC0
000000
000000
000000
000000
FFFFC0
FFFFC0
FFFFC0
FFFFC0
000000
000000
000000
ENDCHAR
STARTCHAR U+256C
ENCODING 9580
SWIDTH 500 0
DWIDTH 18 0
BBX 18 18 0 0
BITMAP
1E1E00
1E1E00
1E1E00
FE1FC0
FE1FC0
FE1FC0
FE1FC0
000000
000000
000000
000000
FE1FC0
FE1FC0
FE1FC0
FE1FC0
1E1E00
1E1E00
1E1E00
ENDCHAR
STARTCHAR U+2567
ENCODING 9575
SWIDTH 500 0
DWIDTH 18 0
BBX 18 18 0 0
BITMAP
01E000
01E000
01E000
FFFFC0
FFFFC0
FFFFC0
FFFFC0
000000
000000
000000
000000
FFFFC0
FFFFC0
FFFFC0
FFFFC0
000000
000000
000000
ENDCHAR
STARTCHAR U+2568
ENCODING 9576
SWIDTH 500 0
DWIDTH 18 0
BBX 18 18 0 0
BITMAP
1E1E00
1E1E00
1E1E00
1E1E00
1E1E00
1E1E00
1E1E00
FFFFC0
FFFFC0
FFFFC0
FFFFC0
000000
000000
000000
000000
000000
000000
000000
ENDCHAR
STARTCHAR U+2564
ENCODING 9572
SWIDTH 500 0
DWIDTH 18 0
BBX 18 18 0 0
BITMAP
000000
000000
000000
FFFFC0
FFFFC0
FFFFC0
FFFFC0
000000
000000
000000
000000
FFFFC0
FFFFC0
FFFFC0
FFFFC0
01E000
01E000
01E000
ENDCHAR
STARTCHAR U+2565
ENCODING 9573
SWIDTH 500 0
DWIDTH 18 0
BBX 18 18 0 0
BITMAP
000000
000000
000000
000000
000000
000000
000000
FFFFC0
FFFFC0
FFFFC0
FFFFC0
1E1E00
1E1E00
1E1E00
1E1E00
1E1E00
1E1E00
1E1E00
ENDCHAR
STARTCHAR U+2559
ENCODING 9561
SWIDTH 500 0
DWIDTH 18 0
BBX 18 18 0 0
BITMAP
1E1E00
1E1E00
1E1E00
1E1E00
1E1E00
1E1E00
1E1E00
1FFFC0
1FFFC0
1FFFC0
1FFFC0
000000
000000
000000
000000
000000
000000
000000
ENDCHAR
STARTCHAR U+2558
ENCODING 9560
SWIDTH 500 0
DWIDTH 18 0
BBX 18 18 0 0
BITMAP
01E000
01E000
01E000
01FFC0
01FFC0
01FFC0
01FFC0
01E000
01E000
01E000
01E000
01FFC0
01FFC0
01FFC0
01FFC0
000000
000000
000000
ENDCHAR
STARTCHAR U+2552
ENCODING 9554
SWIDTH 500 0
DWIDTH 18 0
BBX 18 18 0 0
BITMAP
000000
000000
000000
01FFC0
01FFC0
01FFC0
01FFC0
01E000
01E000
01E000
01E000
01FFC0
01FFC0
01FFC0
01FFC0
01E000
01E000
01E000
ENDCHAR
STARTCHAR U+2553
ENCODING 9555
SWIDTH 500 0
DWIDTH 18 0
BBX 18 18 0 0
BITMAP
000000
000000
000000
000000
000000
000000
000000
1FFFC0
1FFFC0
1FFFC0
1FFFC0
1E1E00
1E1E00
1E1E00
1E1E00
1E1E00
1E1E00
1E1E00
ENDCHAR
STARTCHAR U+256B
ENCODING 9579
SWIDTH 500 0
DWIDTH 18 0
BBX 18 18 0 0
BITMAP
1E1E00
1E1E00
1E1E00
1E1E00
1E1E00
1E1E00
1E1E00
FE1FC0
FE1FC0
FE1FC0
FE1FC0
1E1E00
1E1E00
1E1E00
1E1E00
1E1E00
1E1E00
1E1E00
ENDCHAR
STARTCHAR U+256A
ENCODING 9578
SWIDTH 500 0
DWIDTH 18 0
BBX 18 18 0 0
BITMAP
01E000
01E000
01E000
FFFFC0
FFFFC0
FFFFC0
FFFFC0
000000
000000
000000
000000
FFFFC0
FFFFC0
FFFFC0
FFFFC0
01E000
01E000
01E000
ENDCHAR
STARTCHAR U+2518
ENCODING 9496
SWIDTH 500 0
DWIDTH 18 0
BBX 18 18 0 0
BITMAP
01E000
01E000
01E000
01E000
01E000
01E000
01E000
FFE000
FFE000
FFE000
FFE000
000000
000000
000000
000000
000000
000000
000000
ENDCHAR
STARTCHAR U+250C
ENCODING 9484
SWIDTH 500 0
DWIDTH 18 0
BBX 18 18 0 0
BITMAP
000000
000000
000000
000000
000000
000000
000000
01FFC0
01FFC0
01FFC0
01FFC0
01E000
01E000
01E000
01E000
01E000
01E000
01E000
ENDCHAR
STARTCHAR U+2588
ENCODING 9608
SWIDTH 500 0
DWIDTH 18 0
BBX 18 18 0 0
BITMAP
FFFFC0
FFFFC0
FFFFC0
FFFFC0
FFFFC0
FFFFC0
FFFFC0
FFFFC0
FFFFC0
FFFFC0
FFFFC0
FFFFC0
FFFFC0
FFFFC0
FFFFC0
FFFFC0
FFFFC0
FFFFC0
ENDCHAR
STARTCHAR U+2584
ENCODING 9604
SWIDTH 500 0
DWIDTH 18 0
BBX 18 18 0 0
BITMAP
000000
000000
000000
000000
000000
000000
000000
000000
000000
FFFFC0
FFFFC0
FFFFC0
FFFFC0
FFFFC0
FFFFC0
FFFFC0
FFFFC0
FFFFC0
ENDCHAR
STARTCHAR U+258C
ENCODING 9612
SWIDTH 500 0
DWIDTH 18 0
BBX 18 18 0 0
BITMAP
FF8000
FF8000
FF8000
FF8000
FF8000
FF8000
FF8000
FF8000
FF8000
FF8000
FF8000
FF8000
FF8000
FF8000
FF8000
FF8000
FF8000
FF8000
ENDCHAR
STARTCHAR U+2590
ENCODING 9616
SWIDTH 500 0
DWIDTH 18 0
BBX 18 18 0 0
BITMAP
007FC0
007FC0
007FC0
007FC0
007FC0
007FC0
007FC0
007FC0
007FC0
007FC0
007FC0
007FC0
007FC0
007FC0
007FC0
007FC0
007FC0
007FC0
ENDCHAR
STARTCHAR U+2580
ENCODING 9600
SWIDTH 500 0
DWIDTH 18 0
BBX 18 18 0 0
BITMAP
FFFFC0
FFFFC0
FFFFC0
FFFFC0
FFFFC0
FFFFC0
FFFFC0
FFFFC0
FFFFC0
000000
000000
000000
000000
000000
000000
000000
000000
000000
ENDCHAR
STARTCHAR U+03B1
ENCODING 945
SWIDTH 500 0
DWIDTH 18 0
BBX 18 18 0 0
BITMAP
000000
000000
000000
000000
1F9E00
3FDE00
79FE00
79F800
787800
79F800
79FE00
3FDE00
1F9E00
000000
000000
000000
000000
000000
ENDCHAR
STARTCHAR U+00DF
ENCODING 223
SWIDTH 500 0
DWIDTH 18 0
BBX 18 18 0 0
BITMAP
000000
000000
07F800
0FFC00
1E1E00
1E1E00
1E7800
1E1E00
1E1E00
1E1E00
1E1E00
1FFC00
1FF800
1E0000
1E0000
0F0000
078000
000000
ENDCHAR
STARTCHAR U+0393
ENCODING 915
SWIDTH 500 0
DWIDTH 18 0
BBX 18 18 0 0
BITMAP
000000
000000
1FFE00
1FFE00
1E1E00
1E1E00
1E1E00
1E0000
1E0000
1E0000
1E0000
1E0000
1E0000
1E0000
1E0000
000000
000000
000000
ENDCHAR
STARTCHAR U+03C0
ENCODING 960
SWIDTH 500 0
DWIDTH 18 0
BBX 18 18 0 0
BITMAP
000000
000000
3FFF00
3FFF00
0F3C00
0F3C00
0F3C00
0F3C00
0F3C00
0F3C00
0F3C00
0F3C00
0F3C00
0F1E00
0F0F00
000000
000000
000000
ENDCHAR
STARTCHAR U+03A3
ENCODING 931
SWIDTH 500 0
DWIDTH 18 0
BBX 18 18 0 0
BITMAP
000000
000000
1FFE00
1FFE00
1E0E00
1E0600
0F0200
078000
03C000
078000
0F0200
1E0600
1C0E00
1FFE00
1FFE00
000000
000000
000000
ENDCHAR
STARTCHAR U+03C3
ENCODING 963
SWIDTH 500 0
DWIDTH 18 0
BBX 18 18 0 0
BITMAP
000000
000000
000000
000000
000000
000000
07FF80
0FFF80
1E1800
1E1C00
1E1E00
1E1E00
1E1E00
0FFC00
07F800
000000
000000
000000
ENDCHAR
STARTCHAR U+00B5
ENCODING 181
SWIDTH 500 0
DWIDTH 18 0
BBX 18 18 0 0
BITMAP
000000
000000
000000
000000
000000
000000
1E1E00
1E1E00
1E1E00
1E1E00
1E1E00
1E1E00
1E1E00
1FFF80
1FE780
1E0000
1C0000
380000
ENDCHAR
STARTCHAR U+03C4
ENCODING 964
SWIDTH 500 0
DWIDTH 18 0
BBX 18 18 0 0
BITMAP
000000
000000
000000
000000
1F8F00
3F9C00
79F800
71F000
01E000
01E000
01E000
01E000
01E000
00F800
007E00
000000
000000
000000
ENDCHAR
STARTCHAR U+03A6
ENCODING 934
SWIDTH 500 0
DWIDTH 18 0
BBX 18 18 0 0
BITMAP
000000
000000
1FFE00
1FFE00
01E000
01E000
07F800
0E1C00
0E1C00
0E1C00
07F800
01E000
01E000
1FFE00
1FFE00
000000
000000
000000
ENDCHAR
STARTCHAR U+0398
ENCODING 920
SWIDTH 500 0
DWIDTH 18 0
BBX 18 18 0 0
BITMAP
000000
000000
07F800
0FFC00
1E1E00
1E1E00
1E1E00
1E1E00
1FFE00
1E1E00
1E1E00
1E1E00
1E1E00
0FFC00
07F800
000000
000000
000000
ENDCHAR
STARTCHAR U+03A9
ENCODING 937
SWIDTH 500 0
DWIDTH 18 0
BBX 18 18 0 0
BITMAP
000000
000000
0FFC00
1FFE00
3C0F00
3C0F00
3C0F00
3C0F00
3C0F00
1E1E00
0F3C00
0F3C00
0F3C00
3F3F00
3F3F00
000000
000000
000000
ENDCHAR
STARTCHAR U+03B4
ENCODING 948
SWIDTH 500 0
DWIDTH 18 0
BBX 18 18 0 0
BITMAP
000000
000000
01FE00
03FE00
078000
03C000
07F800
0FFC00
1E1E00
1E1E00
1E1E00
1E1E00
1E1E00
0FFC00
07F800
000000
000000
000000
ENDCHAR
STARTCHAR U+221E
ENCODING 8734
SWIDTH 500 0
DWIDTH 18 0
BBX 18 18 0 0
BITMAP
000000
000000
000000
000000
000000
1F9E00
3FBF00
79E780
79E780
79E780
3F7F00
1E7E00
000000
000000
000000
000000
000000
000000
ENDCHAR
STARTCHAR U+03C6
ENCODING 966
SWIDTH 500 0
DWIDTH 18 0
BBX 18 18 0 0
BITMAP
000000
000000
000100
000200
03FC00
07FC00
0C3C00
0C6C00
0CCC00
0D8C00
0F0C00
0FF800
0FF000
100000
200000
000000
000000
000000
ENDCHAR
STARTCHAR U+03B5
ENCODING 949
SWIDTH 500 0
DWIDTH 18 0
BBX 18 18 0 0
BITMAP
000000
000000
01FE00
03FE00
078000
0F0000
1E0000
1E0000
1FFE00
1E0000
1E0000
0F0000
078000
03FE00
01FE00
000000
000000
000000
ENDCHAR
STARTCHAR U+2229
ENCODING 8745
SWIDTH 500 0
DWIDTH 18 0
BBX 18 18 0 0
BITMAP
000000
000000
07F800
0FFC00
1E1E00
1E1E00
1E1E00
1E1E00
1E1E00
1E1E00
1E1E00
1E1E00
1E1E00
1E1E00
1E1E00
000000
000000
000000
ENDCHAR
STARTCHAR U+2261
ENCODING 8801
SWIDTH 500 0
DWIDTH 18 0
BBX 18 18 0 0
BITMAP
000000
000000
000000
1FFE00
1FFE00
000000
000000
000000
1FFE00
1FFE00
000000
000000
000000
1FFE00
1FFE00
000000
000000
000000
ENDCHAR
STARTCHAR U+00B1
ENCODING 177
SWIDTH 500 0
DWIDTH 18 0
BBX 18 18 0 0
BITMAP
000000
000000
01E000
01E000
01E000
01E000
1FFE00
1FFE00
01E000
01E000
01E000
01E000
000000
000000
1FFE00
1FFE00
000000
000000
ENDCHAR
STARTCHAR U+2265
ENCODING 8805
SWIDTH 500 0
DWIDTH 18 0
BBX 18 18 0 0
BITMAP
000000
000000
078000
03C000
01E000
00F000
007800
007800
00F000
01E000
03C000
078000
000000
000000
1FFE00
1FFE00
000000
000000
ENDCHAR
STARTCHAR U+2264
ENCODING 8804
SWIDTH 500 0
DWIDTH 18 0
BBX 18 18 0 0
BITMAP
000000
000000
007800
00F000
01E000
03C000
078000
078000
03C000
01E000
00F000
007800
000000
000000
1FFE00
1FFE00
000000
000000
ENDCHAR
STARTCHAR U+2320
ENCODING 8992
SWIDTH 500 0
DWIDTH 18 0
BBX 18 18 0 0
BITMAP
000000
000000
01F800
03FC00
079E00
079E00
079E00
079E00
078000
078000
078000
078000
078000
078000
078000
078000
078000
078000
ENDCHAR
STARTCHAR U+2321
ENCODING 8993
SWIDTH 500 0
DWIDTH 18 0
BBX 18 18 0 0
BITMAP
007800
007800
007800
007800
007800
007800
007800
007800
007800
007800
1E7800
1E7800
1E7800
1E7800
0FF000
07E000
000000
000000
ENDCHAR
STARTCHAR U+00F7
ENCODING 247
SWIDTH 500 0
DWIDTH 18 0
BBX 18 18 0 0
BITMAP
000000
000000
01E000
01E000
01E000
01E000
000000
000000
1FFE00
1FFE00
000000
000000
01E000
01E000
01E000
01E000
000000
000000
ENDCHAR
STARTCHAR U+2248
ENCODING 8776
SWIDTH 500 0
DWIDTH 18 0
BBX 18 18 0 0
BITMAP
000000
000000
0F8000
1FC300
3FE700
38FF00
307E00
003800
000000
0F0000
1F8300
3FC700
39FF00
30FE00
007800
000000
000000
000000
ENDCHAR
STARTCHAR U+00B0
ENCODING 176
SWIDTH 500 0
DWIDTH 18 0
BBX 18 18 0 0
BITMAP
000000
000000
03E000
07F000
0E3800
0C1800
0C1800
0E3800
07F000
03E000
000000
000000
000000
000000
000000
000000
000000
000000
ENDCHAR
STARTCHAR U+2219
ENCODING 8729
SWIDTH 500 0
DWIDTH 18 0
BBX 18 18 0 0
BITMAP
000000
000000
000000
000000
000000
000000
000000
01E000
01E000
01E000
01E000
000000
000000
000000
000000
000000
000000
000000
ENDCHAR
STARTCHAR U+00B7
ENCODING 183
SWIDTH 500 0
DWIDTH 18 0
BBX 18 18 0 0
BITMAP
000000
000000
000000
000000
000000
000000
000000
000000
000000
01E000
01E000
000000
000000
000000
000000
000000
000000
000000
ENDCHAR
STARTCHAR U+221A
ENCODING 8730
SWIDTH 500 0
DWIDTH 18 0
BBX 18 18 0 0
BITMAP
000000
000000
003F00
003F00
003000
003000
003000
003000
383000
1E3000
0F3000
07F000
03F000
01F000
00F000
000000
000000
000000
ENDCHAR
STARTCHAR U+207F
ENCODING 8319
SWIDTH 500 0
DWIDTH 18 0
BBX 18 18 0 0
BITMAP
000000
000000
1E7800
1FFC00
079E00
079E00
079E00
079E00
079E00
000000
000000
000000
000000
000000
000000
000000
000000
000000
ENDCHAR
STARTCHAR U+00B2
ENCODING 178
SWIDTH 500 0
DWIDTH 18 0
BBX 18 18 0 0
BITMAP
000000
000000
07E000
07F000
00F000
01E000
03C000
07F800
07F800
000000
000000
000000
000000
000000
000000
000000
000000
000000
ENDCHAR
STARTCHAR U+25A0
ENCODING 9632
SWIDTH 500 0
DWIDTH 18 0
BBX 18 18 0 0
BITMAP
000000
000000
000000
1FFE00
1FFE00
1FFE00
1FFE00
1FFE00
1FFE00
1FFE00
1FFE00
1FFE00
1FFE00
1FFE00
1FFE00
000000
000000
000000
ENDCHAR
STARTCHAR U+00FF
ENCODING 255
SWIDTH 500 0
DWIDTH 18 0
BBX 18 18 0 0
BITMAP
000000
000000
000000
1FFE00
1FFE00
180600
180600
180600
180600
180600
180600
180600
180600
1FFE00
1FFE00
000000
000000
000000
ENDCHAR
ENDFONT
